<?xml version="1.0" encoding="UTF-8" standalone="no" ?>
<!DOCTYPE svg PUBLIC "-//W3C//DTD SVG 1.1//EN" "http://www.w3.org/Graphics/SVG/1.1/DTD/svg11.dtd">
<svg xmlns="http://www.w3.org/2000/svg" xmlns:xlink="http://www.w3.org/1999/xlink" version="1.1" width="1200" height="900" viewBox="0 0 1200 900" xml:space="preserve">
<desc>Created with Fabric.js 5.2.4</desc>
<defs>
</defs>
<g transform="matrix(1 0 0 1 600 450)" id="c01a9d56-3051-4915-ad29-056154596a72"  >
<rect style="stroke: none; stroke-width: 1; stroke-dasharray: none; stroke-linecap: butt; stroke-dashoffset: 0; stroke-linejoin: miter; stroke-miterlimit: 4; fill: rgb(255,255,255); fill-rule: nonzero; opacity: 1; visibility: hidden;" vector-effect="non-scaling-stroke"  x="-600" y="-450" rx="0" ry="0" width="1200" height="900" />
</g>
<g transform="matrix(0 0 0 0 0 0)" id="e3b47f20-163e-4820-bacd-3572686e5e41"  >
</g>
<g transform="matrix(3.02 0 0 3.02 559.11 462.11)"  >
<g style="" vector-effect="non-scaling-stroke"   >
		<g transform="matrix(1 0 0 1 -5 -17.54)"  >
<path style="stroke: rgb(35,24,21); stroke-width: 1; stroke-dasharray: none; stroke-linecap: butt; stroke-dashoffset: 0; stroke-linejoin: miter; stroke-miterlimit: 10; fill: rgb(248,182,45); fill-rule: nonzero; opacity: 1;" vector-effect="non-scaling-stroke"  transform=" translate(-245.14, -232.58)" d="M 236.75 272.11 C 255.4786614596664 248.0515408530468 285.9779227861015 236.32520025220794 315.99999999999994 241.64 C 319.50966000914246 242.2599620285997 322.97149433141556 243.12542060916795 326.35999999999996 244.22999999999996 C 321.0048983941311 210.2336004850278 295.1437142042489 183.11361558596462 261.44 176.14999999999998 C 228.11 169.4 193.17 185 175.64 214 C 161.75509294696775 237.27563916233686 160.10876031750678 265.86433593424624 171.23 290.58 C 171.7 290.12 172.17 289.65999999999997 172.64999999999998 289.21 C 189.83408443828483 273.18803649897694 213.86884234905705 266.7762680079597 236.75 272.11 Z" stroke-linecap="round" />
</g>
		<g transform="matrix(1 0 0 1 -4.55 -18.52)"  >
<path style="stroke: rgb(35,24,21); stroke-width: 1; stroke-dasharray: none; stroke-linecap: butt; stroke-dashoffset: 0; stroke-linejoin: miter; stroke-miterlimit: 10; fill: rgb(35,24,21); fill-rule: nonzero; opacity: 1;" vector-effect="non-scaling-stroke"  transform=" translate(-245.58, -231.61)" d="M 171.23 290.58 C 160.10876031750678 265.86433593424624 161.75509294696775 237.27563916233686 175.64 214 C 193.17999999999998 185.05 228.11999999999998 169.4 261.4 176.14 C 295.1037142042489 183.10361558596466 320.96489839413107 210.22360048502776 326.32 244.2199999999999 C 331.8507543390427 246.02066099604886 337.16355772074394 248.43221758155596 342.15999999999997 251.40999999999997 C 339.84390027596305 212.58321735612031 314.7848705871263 178.80100836908693 278.29999999999984 165.31999999999994 C 240.60999999999996 151.49999999999997 196.39999999999995 163.69999999999996 171.02999999999997 194.74999999999997 C 146.02999999999997 225.34999999999997 141.76999999999998 269.04999999999995 161.02999999999997 303.54999999999995 C 163.88894908163206 298.8272942782027 167.31433918933794 294.471675680463 171.22999999999996 290.58 Z" stroke-linecap="round" />
</g>
		<g transform="matrix(1 0 0 1 -4.57 -135.42)"  >
<path style="stroke: rgb(35,24,21); stroke-width: 1; stroke-dasharray: none; stroke-linecap: butt; stroke-dashoffset: 0; stroke-linejoin: miter; stroke-miterlimit: 10; fill: rgb(35,24,21); fill-rule: nonzero; opacity: 1;" vector-effect="non-scaling-stroke"  transform=" translate(-245.57, -114.72)" d="M 253.07 131.54 L 253.07 97.89 C 253.07 88.24 238.07 88.22 238.07 97.89 L 238.07 131.54 C 238.07 141.19 253.07 141.21 253.07 131.54 Z M 245.57 97.88999999999999 L 245.57 97.88999999999999 Z" stroke-linecap="round" />
</g>
		<g transform="matrix(1 0 0 1 -75.39 -116.44)"  >
<path style="stroke: rgb(35,24,21); stroke-width: 1; stroke-dasharray: none; stroke-linecap: butt; stroke-dashoffset: 0; stroke-linejoin: miter; stroke-miterlimit: 10; fill: rgb(35,24,21); fill-rule: nonzero; opacity: 1;" vector-effect="non-scaling-stroke"  transform=" translate(-174.75, -133.69)" d="M 176.66 152.05 C 181.49 160.41000000000003 194.45 152.86 189.66 144.48000000000002 L 172.82999999999998 115.33000000000001 C 167.99999999999997 106.97000000000001 155.04 114.52000000000001 159.82999999999998 122.9 Z M 183.14 148.26000000000002 L 166.31 119.11000000000001 Z" stroke-linecap="round" />
</g>
		<g transform="matrix(1 0 0 1 -127.28 -64.56)"  >
<path style="stroke: rgb(35,24,21); stroke-width: 1; stroke-dasharray: none; stroke-linecap: butt; stroke-dashoffset: 0; stroke-linejoin: miter; stroke-miterlimit: 10; fill: rgb(35,24,21); fill-rule: nonzero; opacity: 1;" vector-effect="non-scaling-stroke"  transform=" translate(-122.86, -185.57)" d="M 141.22 187.49 L 112.07 170.66000000000003 C 103.69999999999999 165.82000000000002 96.13 178.78000000000003 104.5 183.66000000000003 L 133.65 200.49 C 142 205.28 149.59 192.32 141.22 187.49 Z M 108.28999999999999 177.14000000000001 L 137.44 194 Z" stroke-linecap="round" />
</g>
		<g transform="matrix(1 0 0 1 -146.26 6.27)"  >
<path style="stroke: rgb(35,24,21); stroke-width: 1; stroke-dasharray: none; stroke-linecap: butt; stroke-dashoffset: 0; stroke-linejoin: miter; stroke-miterlimit: 10; fill: rgb(35,24,21); fill-rule: nonzero; opacity: 1;" vector-effect="non-scaling-stroke"  transform=" translate(-103.88, -256.4)" d="M 87.06 263.9 L 120.71000000000001 263.9 C 130.36 263.9 130.38 248.89999999999998 120.71000000000001 248.89999999999998 L 87.06 248.89999999999998 C 77.4 248.9 77.39 263.9 87.06 263.9 Z M 120.71000000000001 256.4 L 120.71000000000001 256.4 Z" stroke-linecap="round" />
</g>
		<g transform="matrix(1 0 0 1 -127.27 77.09)"  >
<path style="stroke: rgb(35,24,21); stroke-width: 1; stroke-dasharray: none; stroke-linecap: butt; stroke-dashoffset: 0; stroke-linejoin: miter; stroke-miterlimit: 10; fill: rgb(35,24,21); fill-rule: nonzero; opacity: 1;" vector-effect="non-scaling-stroke"  transform=" translate(-122.87, -327.23)" d="M 112.08 342.13 L 141.23 325.3 C 149.58999999999997 320.47 142.04 307.51 133.66 312.3 L 104.50999999999999 329.13 C 96.15 334 103.69 347 112.08 342.13 Z M 137.44 318.83 L 108.28999999999999 335.65999999999997 Z" stroke-linecap="round" />
</g>
		<g transform="matrix(1 0 0 1 137.11 6.27)"  >
<path style="stroke: rgb(35,24,21); stroke-width: 1; stroke-dasharray: none; stroke-linecap: butt; stroke-dashoffset: 0; stroke-linejoin: miter; stroke-miterlimit: 10; fill: rgb(35,24,21); fill-rule: nonzero; opacity: 1;" vector-effect="non-scaling-stroke"  transform=" translate(-387.25, -256.4)" d="M 370.42 263.9 L 404.07 263.9 C 413.71999999999997 263.9 413.74 248.89999999999998 404.07 248.89999999999998 L 370.42 248.89999999999998 C 360.77 248.9 360.75 263.9 370.42 263.9 Z M 370.42 256.4 L 370.42 256.4 Z" stroke-linecap="round" />
</g>
		<g transform="matrix(1 0 0 1 118.14 -64.6)"  >
<path style="stroke: rgb(35,24,21); stroke-width: 1; stroke-dasharray: none; stroke-linecap: butt; stroke-dashoffset: 0; stroke-linejoin: miter; stroke-miterlimit: 10; fill: rgb(35,24,21); fill-rule: nonzero; opacity: 1;" vector-effect="non-scaling-stroke"  transform=" translate(-368.27, -185.53)" d="M 357.48 200.44 L 386.63 183.61 C 394.99 178.78 387.44 165.82000000000002 379.06 170.61 L 349.91 187.44 C 341.55 192.32 349.1 205.28 357.48 200.44 Z M 382.84000000000003 177.14 L 353.7 194 Z" stroke-linecap="round" />
</g>
		<g transform="matrix(1 0 0 1 66.26 -116.44)"  >
<path style="stroke: rgb(35,24,21); stroke-width: 1; stroke-dasharray: none; stroke-linecap: butt; stroke-dashoffset: 0; stroke-linejoin: miter; stroke-miterlimit: 10; fill: rgb(35,24,21); fill-rule: nonzero; opacity: 1;" vector-effect="non-scaling-stroke"  transform=" translate(-316.39, -133.69)" d="M 314.47 152.05 L 331.3 122.9 C 336.14 114.53 323.18 106.96000000000001 318.3 115.33000000000001 L 301.47 144.48000000000002 C 296.68 152.86 309.64 160.42 314.47 152.05 Z M 324.82000000000005 119.12 L 308 148.27 Z" stroke-linecap="round" />
</g>
		<g transform="matrix(1 0 0 1 35.55 101.36)"  >
<path style="stroke: rgb(35,24,21); stroke-width: 1; stroke-dasharray: none; stroke-linecap: butt; stroke-dashoffset: 0; stroke-linejoin: miter; stroke-miterlimit: 10; fill: rgb(35,24,21); fill-rule: nonzero; opacity: 1;" vector-effect="non-scaling-stroke"  transform=" translate(-285.69, -351.49)" d="M 377.25 293.37 C 377.79 294.78000000000003 378.3 296.21 378.76 297.66 C 379.21485423792353 298.97784547471275 379.27051402087983 300.4006486765321 378.92 301.75 C 402.5112406118901 310.3502273913825 416.52447069132336 334.6449402902742 412.15651017608775 359.3720805561626 C 407.7885496608521 384.09922082205094 386.29996889050585 402.12266634656197 361.19 402.12 L 220.54 402.12 C 198.71350282740693 402.12128026025516 178.48177177647304 390.68745423479993 167.22354762099266 371.98856738747025 C 155.96532346551228 353.2896805401406 155.32647595860698 330.0593729063484 165.53999999999996 310.77000000000004 C 164.54 309.33 163.59 307.87 162.67999999999998 306.37 C 162.11999999999998 305.44 161.57999999999998 304.5 161.05999999999997 303.56 C 152.41968132395 317.9711092966886 149.1505157695419 334.97218693608073 151.82999999999998 351.56 C 155.62347394735403 373.8719225789657 170.00666752167265 392.95631032052535 190.40999999999997 402.75 C 202.08999999999997 408.22 214.18999999999997 409.61 226.85999999999996 409.61 L 350.31 409.61 C 360.11 409.61 369.81 409.89 379.31 406.79 C 403.94 398.73 421.16 374.96000000000004 420.44 348.92 C 419.5730099951607 323.01101323854704 402.14585363909003 300.5965993561732 377.25 293.37 Z" stroke-linecap="round" />
</g>
		<g transform="matrix(1 0 0 1 -0.9 18.88)"  >
<path style="stroke: rgb(35,24,21); stroke-width: 1; stroke-dasharray: none; stroke-linecap: butt; stroke-dashoffset: 0; stroke-linejoin: miter; stroke-miterlimit: 10; fill: rgb(35,24,21); fill-rule: nonzero; opacity: 1;" vector-effect="non-scaling-stroke"  transform=" translate(-249.25, -269.02)" d="M 220.54 277.65 C 227.05099518000043 277.63931542272917 233.5232424622157 278.6516585847023 239.72 280.65 C 258.7527666816473 252.02172133918498 295.0407881472035 240.34052924419112 327.19999999999993 252.48999999999995 C 327.04394722903913 249.71337510074778 326.74689752174936 246.946473894644 326.31 244.19999999999996 C 322.9370811833664 243.10782919068328 319.49204290320347 242.2524171637951 316 241.64 C 285.99103026961717 236.34095344590233 255.5113509108782 248.06568302626815 236.79000000000002 272.11 C 238.46 272.49 240.11 272.93 241.79000000000002 273.44 L 233.32000000000002 276.89 Q 235.00000000000003 274.43 236.82000000000002 272.11 C 213.93568745862171 266.77272211437577 189.8962990558404 273.1847255723006 172.71000000000004 289.21000000000004 C 172.23000000000005 289.66 171.71000000000004 290.12000000000006 171.29000000000005 290.59000000000003 C 172.38017092561293 293.00304135721757 173.59171932449243 295.3593861770769 174.92000000000007 297.6500000000001 C 186.66592389927533 284.9043626464793 203.20742968972664 277.6524968900342 220.54 277.65 Z" stroke-linecap="round" />
</g>
		<g transform="matrix(1 0 0 1 -12.67 24.37)"  >
<path style="stroke: rgb(35,24,21); stroke-width: 1; stroke-dasharray: none; stroke-linecap: butt; stroke-dashoffset: 0; stroke-linejoin: miter; stroke-miterlimit: 10; fill: rgb(35,24,21); fill-rule: nonzero; opacity: 1;" vector-effect="non-scaling-stroke"  transform=" translate(-237.47, -274.5)" d="M 241.72 273.44 C 240.07 272.93 238.42 272.49 236.72 272.11 Q 234.9 274.43 233.22 276.89 Z" stroke-linecap="round" />
</g>
		<g transform="matrix(1 0 0 1 109.56 22.28)"  >
<path style="stroke: rgb(35,24,21); stroke-width: 1; stroke-dasharray: none; stroke-linecap: butt; stroke-dashoffset: 0; stroke-linejoin: miter; stroke-miterlimit: 10; fill: rgb(35,24,21); fill-rule: nonzero; opacity: 1;" vector-effect="non-scaling-stroke"  transform=" translate(-359.7, -272.41)" d="M 342.22 260.28 C 354.10285613988214 268.2857436774157 363.4060142277094 279.56903623501955 369 292.76 C 370.43433547483716 292.17921047140976 372.0133532757954 292.0569413939019 373.52 292.40999999999997 C 374.78 292.67999999999995 376.02 293.01 377.25 293.40999999999997 C 370.58903858629765 275.87111561811884 358.2274102386383 261.07942357818456 342.1499999999999 251.40999999999994 C 342.25 253.05999999999997 342.32 254.71999999999997 342.33 256.40999999999997 C 342.32 257.7 342.28 259 342.22 260.28 Z" stroke-linecap="round" />
</g>
		<g transform="matrix(1 0 0 1 123.93 46.84)"  >
<path style="stroke: rgb(35,24,21); stroke-width: 1; stroke-dasharray: none; stroke-linecap: butt; stroke-dashoffset: 0; stroke-linejoin: miter; stroke-miterlimit: 10; fill: rgb(35,24,21); fill-rule: nonzero; opacity: 1;" vector-effect="non-scaling-stroke"  transform=" translate(-374.07, -296.97)" d="M 369 292.76 C 369.9583326243486 295.0127901941264 370.80273300590716 297.3123627747346 371.53 299.65 C 374.04235969611835 300.1643048542017 376.51261824358636 300.8662727770275 378.91999999999996 301.75 C 379.2705140208798 300.4006486765321 379.2148542379235 298.97784547471275 378.75999999999993 297.66 C 378.29999999999995 296.21000000000004 377.75999999999993 294.79 377.24999999999994 293.37 C 376.0199999999999 293.02 374.7799999999999 292.69 373.5199999999999 292.37 C 372.0092454422991 292.02959720861554 370.43011830759724 292.16584932864515 369 292.76 Z" stroke-linecap="round" />
</g>
		<g transform="matrix(1 0 0 1 85.12 4.4)"  >
<path style="stroke: rgb(35,24,21); stroke-width: 1; stroke-dasharray: none; stroke-linecap: butt; stroke-dashoffset: 0; stroke-linejoin: miter; stroke-miterlimit: 10; fill: rgb(35,24,21); fill-rule: nonzero; opacity: 1;" vector-effect="non-scaling-stroke"  transform=" translate(-335.26, -254.53)" d="M 342.33 256.4 C 342.39 248.10999999999999 331.33 246.93999999999997 328.18 252.89999999999998 C 332.8721872343755 254.76664027462496 337.3592747307455 257.11239176637923 341.56999999999994 259.9 C 342.1045558808771 258.81262510061026 342.3654482209608 257.6111472186459 342.33 256.4 Z" stroke-linecap="round" />
</g>
		<g transform="matrix(1 0 0 1 91.82 8.2)"  >
<path style="stroke: rgb(35,24,21); stroke-width: 1; stroke-dasharray: none; stroke-linecap: butt; stroke-dashoffset: 0; stroke-linejoin: miter; stroke-miterlimit: 10; fill: rgb(35,24,21); fill-rule: nonzero; opacity: 1;" vector-effect="non-scaling-stroke"  transform=" translate(-341.96, -258.33)" d="M 342.22 260.28 C 342.28000000000003 258.98999999999995 342.33000000000004 257.69 342.34000000000003 256.39 C 342.36583569308186 257.58852487478424 342.1016722944543 258.77554482186395 341.57000000000005 259.84999999999997 Z" stroke-linecap="round" />
</g>
		<g transform="matrix(1 0 0 1 -82.18 50.55)"  >
<path style="stroke: rgb(35,24,21); stroke-width: 1; stroke-dasharray: none; stroke-linecap: butt; stroke-dashoffset: 0; stroke-linejoin: miter; stroke-miterlimit: 10; fill: rgb(35,24,21); fill-rule: nonzero; opacity: 1;" vector-effect="non-scaling-stroke"  transform=" translate(-167.96, -300.67)" d="M 165.54 310.77 C 168.06620465358193 306.0089631887872 171.19897903545905 301.5955160177522 174.85999999999999 297.64 C 173.53171932449234 295.3493861770768 172.32017092561287 292.9930413572175 171.23 290.58 C 167.32292302771864 294.4827216267672 163.90759185861936 298.84843501892954 161.05999999999997 303.58000000000004 C 161.59 304.52 162.12 305.46 162.68 306.39 C 163.59 307.87 164.56 309.33 165.54 310.77 Z" stroke-linecap="round" />
</g>
		<g transform="matrix(1 0 0 1 84.21 0.16)"  >
<path style="stroke: rgb(35,24,21); stroke-width: 1; stroke-dasharray: none; stroke-linecap: butt; stroke-dashoffset: 0; stroke-linejoin: miter; stroke-miterlimit: 10; fill: rgb(35,24,21); fill-rule: nonzero; opacity: 1;" vector-effect="non-scaling-stroke"  transform=" translate(-334.35, -250.29)" d="M 327.21 252.51 L 328.21 252.89 C 331.38 246.89 342.43 248.1 342.35999999999996 256.39 C 342.35999999999996 254.72 342.28 253.05999999999997 342.17999999999995 251.39 C 337.1835577207439 248.41221758155595 331.87075433904266 246.00066099604888 326.34 244.2 C 326.77087369334555 246.95343592148905 327.0612497270332 249.72702769153986 327.21 252.50999999999996 Z" stroke-linecap="round" />
</g>
		<g transform="matrix(1 0 0 1 35.45 74.8)"  >
<path style="stroke: none; stroke-width: 1; stroke-dasharray: none; stroke-linecap: butt; stroke-dashoffset: 0; stroke-linejoin: miter; stroke-miterlimit: 4; fill: rgb(255,255,255); fill-rule: nonzero; opacity: 1;" vector-effect="non-scaling-stroke"  transform=" translate(-285.59, -324.94)" d="M 405.36 347.5 C 406.36 366.56 395.17 384.78 377.18 391.67 C 369.06 394.78000000000003 360.93 394.62 352.47 394.62 L 237 394.62 C 231.52 394.62 226 394.67 220.55 394.62 C 201.98002433744367 394.6491441071886 184.6630322066791 385.2566199982468 174.5598643921306 369.6755145946501 C 164.4566965775821 354.0944091910534 162.946833881894 334.4521577866399 170.55 317.51 C 172.1576891454812 313.83759971756604 174.1701404294643 310.3560589962753 176.55 307.13 C 177.33 306.08 178.14000000000001 305.07 178.99 304.13 C 193.37 287.44 216.55 281.44 237.64000000000001 287.95 C 240.98000000000002 288.95 244.27 287.21 246.11 284.5 C 260.75 262.97 287.53000000000003 251.37 313.26 256.4 C 318.00910010603434 257.3321697665471 322.64292972737223 258.7773076585852 327.08 260.71 C 327.95 261.09 328.81 261.47999999999996 329.65 261.89 C 330.48999999999995 262.3 331.59 262.89 332.53999999999996 263.38 C 347.5524648774115 271.5831632787249 358.85837383454844 285.21823259380363 364.14 301.49 C 364.515427103921 304.2765115694585 366.6733820867338 306.4872978418693 369.45 306.93 C 388.93 311.09 404.25 327.28 405.36 347.5 Z" stroke-linecap="round" />
</g>
		<g transform="matrix(1 0 0 1 35.47 74.8)"  >
<path style="stroke: none; stroke-width: 1; stroke-dasharray: none; stroke-linecap: butt; stroke-dashoffset: 0; stroke-linejoin: miter; stroke-miterlimit: 4; fill: rgb(35,24,21); fill-rule: nonzero; opacity: 1;" vector-effect="non-scaling-stroke"  transform=" translate(-285.61, -324.94)" d="M 378.92 301.75 C 402.5112406118901 310.3502273913825 416.52447069132336 334.6449402902742 412.15651017608775 359.3720805561626 C 407.7885496608521 384.09922082205094 386.29996889050585 402.12266634656197 361.19 402.12 L 220.54 402.12 C 195.95657423869113 402.1334159576037 173.66851090256193 387.6755013611068 163.65892520751902 365.2221453455065 C 153.6493395124761 342.76878932990616 157.79385860759885 316.52737124274734 174.23609815759755 298.25176562405 C 190.67833770759623 279.97616000535265 216.3372999737815 273.0909064023702 239.71999999999997 280.68 C 258.7527666816473 252.051721339185 295.0407881472035 240.37052924419115 327.19999999999993 252.51999999999998 L 328.2 252.9 C 332.8954415914023 254.75954015409098 337.38324758650407 257.1056672613137 341.59 259.9 C 341.81 260.03999999999996 342.03 260.17999999999995 342.23999999999995 260.33 C 354.1121995880618 268.32491211404863 363.4083396111172 279.5942238609812 369 292.77 C 369.95 295.01 370.8 297.31 371.53 299.65999999999997 C 374.04250437521165 300.1693493889369 376.5128841488792 300.8680088919092 378.92 301.75 Z M 377.18 391.67 C 395.18 384.78000000000003 406.4 366.56 405.36 347.5 C 404.25 327.28 388.93 311.09000000000003 369.54 306.89 C 366.7633820867338 306.4472978418693 364.60542710392104 304.23651156945846 364.23 301.45 C 358.9483738345485 285.17823259380367 347.64246487741156 271.54316327872493 332.63 263.34 C 331.63 262.82 330.71999999999997 262.34 329.74 261.84999999999997 C 328.76000000000005 261.35999999999996 328.04 261.04999999999995 327.17 260.66999999999996 C 322.7329297273723 258.7373076585852 318.09910010603437 257.2921697665471 313.35 256.35999999999996 C 287.62 251.35999999999996 260.84000000000003 262.92999999999995 246.20000000000002 284.46 C 244.36 287.16999999999996 241.07000000000002 288.94 237.73000000000002 287.90999999999997 C 216.64000000000001 281.4 193.46 287.4 179.08 304.09 C 178.23000000000002 305.09 177.42000000000002 306.09 176.64000000000001 307.09 C 174.26014042946431 310.3160589962753 172.24768914548122 313.797599717566 170.64000000000001 317.46999999999997 C 163.03683388189404 334.4121577866399 164.5466965775821 354.0544091910534 174.6498643921306 369.6355145946501 C 184.7530322066791 385.21661999824676 202.0700243374437 394.60914410718857 220.64000000000004 394.58 C 226.12 394.63 231.64000000000001 394.58 237.09 394.58 L 352.47 394.58 C 360.93 394.62 369.06 394.78 377.18 391.67 Z" stroke-linecap="round" />
</g>
</g>
</g>
</svg>